<?xml version="1.0" standalone="no"?>
<!DOCTYPE svg PUBLIC "-//W3C//DTD SVG 20010904//EN"
 "http://www.w3.org/TR/2001/REC-SVG-20010904/DTD/svg10.dtd">
<svg version="1.0" xmlns="http://www.w3.org/2000/svg"
 width="1663.000000pt" height="2000.000000pt" viewBox="0 0 1663.000000 2000.000000"
 preserveAspectRatio="xMidYMid meet">
<metadata>
Created by potrace 1.15, written by Peter Selinger 2001-2017
</metadata>
<g transform="translate(0.000000,2000.000000) scale(0.100000,-0.100000)"
fill="#000000" stroke="none">
<path d="M3840 13740 l0 -2420 1965 0 1965 0 0 -200 0 -200 -1965 0 -1965 0 0
-3540 0 -3540 1148 0 1147 0 870 870 870 870 -500 500 -500 500 500 500 500
500 -150 150 -150 150 -650 -650 -650 -650 283 -283 282 -282 -568 -568 -567
-567 -413 0 -412 0 0 2500 0 2500 3435 0 3435 0 0 -2500 0 -2500 -412 0 -413
0 -567 567 -568 568 282 282 283 283 -650 650 -650 650 -150 -150 -150 -150
500 -500 500 -500 -500 -500 -500 -500 870 -870 870 -870 1147 0 1148 0 0
3540 0 3540 -1965 0 -1965 0 0 200 0 200 1965 0 1965 0 0 2420 0 2420 -4475 0
-4475 0 0 -2420z m7910 40 l0 -1420 -3435 0 -3435 0 0 1420 0 1420 3435 0
3435 0 0 -1420z"/>
<path d="M6572 14354 c-187 -50 -333 -199 -377 -386 -58 -248 77 -504 315
-598 273 -108 583 38 681 321 32 90 32 228 0 321 -58 172 -192 297 -368 343
-71 19 -181 18 -251 -1z"/>
<path d="M9803 14355 c-75 -21 -160 -66 -217 -116 -186 -164 -226 -455 -92
-663 110 -170 316 -266 506 -237 128 20 220 68 308 160 194 201 186 521 -17
721 -129 128 -319 180 -488 135z"/>
<path d="M7720 6580 l0 -600 595 0 595 0 0 600 0 600 -595 0 -595 0 0 -600z"/>
</g>
</svg>
